<?xml version="1.0" encoding="UTF-8" standalone="no"?>
<!DOCTYPE svg PUBLIC "-//W3C//DTD SVG 1.1//EN"
 "http://www.w3.org/Graphics/SVG/1.1/DTD/svg11.dtd">
<!-- Generated by graphviz version 12.2.1 (20241206.2353)
 -->
<!-- Title: AWSInfrastructure Pages: 1 -->
<svg width="1002pt" height="378pt"
 viewBox="0.00 0.00 1001.83 378.17" xmlns="http://www.w3.org/2000/svg" xmlns:xlink="http://www.w3.org/1999/xlink">
<g id="graph0" class="graph" transform="scale(1 1) rotate(0) translate(4 374.17)">
<title>AWSInfrastructure</title>
<polygon fill="white" stroke="none" points="-4,4 -4,-374.17 997.83,-374.17 997.83,4 -4,4"/>
<text text-anchor="middle" x="496.92" y="-349.07" font-family="Times,serif" font-size="18.00">AWS Infrastructure Diagram (Conceptual)</text>
<g id="clust1" class="cluster">
<title>cluster_AWSCloud</title>
<polygon fill="#f5f5f5" stroke="black" points="182.14,-99.17 182.14,-333.17 985.83,-333.17 985.83,-99.17 182.14,-99.17"/>
<text text-anchor="middle" x="583.99" y="-312.07" font-family="Times,serif" font-size="18.00">AWS Cloud Region</text>
</g>
<g id="clust2" class="cluster">
<title>cluster_AppRunnerServices</title>
<polygon fill="#dddddd" stroke="black" points="381.21,-107.17 381.21,-296.17 601.96,-296.17 601.96,-107.17 381.21,-107.17"/>
<text text-anchor="middle" x="491.59" y="-275.07" font-family="Times,serif" font-size="18.00">App Runner Services</text>
</g>
<!-- User -->
<g id="node1" class="node">
<title>User</title>
<ellipse fill="lightgrey" stroke="black" cx="28.32" cy="-187.17" rx="28.32" ry="18"/>
<text text-anchor="middle" x="28.32" y="-182.12" font-family="Times,serif" font-size="14.00">User</text>
</g>
<!-- APIGatewayAWS -->
<g id="node2" class="node">
<title>APIGatewayAWS</title>
<polygon fill="#ffbb50" stroke="black" points="352.21,-187.17 311.7,-220.65 230.66,-220.65 190.14,-187.17 230.66,-153.69 311.7,-153.69 352.21,-187.17"/>
<text text-anchor="middle" x="271.18" y="-190.37" font-family="Times,serif" font-size="14.00">API Gateway</text>
<text text-anchor="middle" x="271.18" y="-173.87" font-family="Times,serif" font-size="14.00">(AWS Service)</text>
</g>
<!-- User&#45;&gt;APIGatewayAWS -->
<g id="edge9" class="edge">
<title>User&#45;&gt;APIGatewayAWS</title>
<path fill="none" stroke="black" d="M56.95,-187.17C86.44,-187.17 134.77,-187.17 177.97,-187.17"/>
<polygon fill="black" stroke="black" points="177.9,-190.67 187.9,-187.17 177.9,-183.67 177.9,-190.67"/>
<text text-anchor="middle" x="123.39" y="-190.37" font-family="Times,serif" font-size="14.00"> HTTPS Requests</text>
</g>
<!-- AppRunnerAPI -->
<g id="node3" class="node">
<title>AppRunnerAPI</title>
<polygon fill="#ffffff" stroke="black" points="471.21,-205.17 389.21,-205.17 389.21,-201.17 385.21,-201.17 385.21,-197.17 389.21,-197.17 389.21,-177.17 385.21,-177.17 385.21,-173.17 389.21,-173.17 389.21,-169.17 471.21,-169.17 471.21,-205.17"/>
<polyline fill="none" stroke="black" points="389.21,-201.17 393.21,-201.17 393.21,-197.17 389.21,-197.17"/>
<polyline fill="none" stroke="black" points="389.21,-177.17 393.21,-177.17 393.21,-173.17 389.21,-173.17"/>
<text text-anchor="middle" x="430.21" y="-182.12" font-family="Times,serif" font-size="14.00">API Service</text>
</g>
<!-- APIGatewayAWS&#45;&gt;AppRunnerAPI -->
<g id="edge1" class="edge">
<title>APIGatewayAWS&#45;&gt;AppRunnerAPI</title>
<path fill="none" stroke="black" d="M353,-187.17C361.38,-187.17 369.72,-187.17 377.65,-187.17"/>
<polygon fill="black" stroke="black" points="377.41,-190.67 387.41,-187.17 377.41,-183.67 377.41,-190.67"/>
</g>
<!-- AppRunnerProfile -->
<g id="node4" class="node">
<title>AppRunnerProfile</title>
<polygon fill="#ffffff" stroke="black" points="589.46,-259.17 512.71,-259.17 512.71,-255.17 508.71,-255.17 508.71,-251.17 512.71,-251.17 512.71,-231.17 508.71,-231.17 508.71,-227.17 512.71,-227.17 512.71,-223.17 589.46,-223.17 589.46,-259.17"/>
<polyline fill="none" stroke="black" points="512.71,-255.17 516.71,-255.17 516.71,-251.17 512.71,-251.17"/>
<polyline fill="none" stroke="black" points="512.71,-231.17 516.71,-231.17 516.71,-227.17 512.71,-227.17"/>
<text text-anchor="middle" x="551.09" y="-236.12" font-family="Times,serif" font-size="14.00">Profile Svc</text>
</g>
<!-- AppRunnerAPI&#45;&gt;AppRunnerProfile -->
<g id="edge2" class="edge">
<title>AppRunnerAPI&#45;&gt;AppRunnerProfile</title>
<path fill="none" stroke="black" d="M471.46,-205.45C481.26,-209.9 491.84,-214.71 501.96,-219.31"/>
<polygon fill="black" stroke="black" points="500.36,-222.43 510.92,-223.38 503.26,-216.05 500.36,-222.43"/>
</g>
<!-- AppRunnerEvent -->
<g id="node5" class="node">
<title>AppRunnerEvent</title>
<polygon fill="#ffffff" stroke="black" points="586.84,-205.17 515.34,-205.17 515.34,-201.17 511.34,-201.17 511.34,-197.17 515.34,-197.17 515.34,-177.17 511.34,-177.17 511.34,-173.17 515.34,-173.17 515.34,-169.17 586.84,-169.17 586.84,-205.17"/>
<polyline fill="none" stroke="black" points="515.34,-201.17 519.34,-201.17 519.34,-197.17 515.34,-197.17"/>
<polyline fill="none" stroke="black" points="515.34,-177.17 519.34,-177.17 519.34,-173.17 515.34,-173.17"/>
<text text-anchor="middle" x="551.09" y="-182.12" font-family="Times,serif" font-size="14.00">Event Svc</text>
</g>
<!-- AppRunnerAPI&#45;&gt;AppRunnerEvent -->
<g id="edge3" class="edge">
<title>AppRunnerAPI&#45;&gt;AppRunnerEvent</title>
<path fill="none" stroke="black" d="M471.46,-187.17C481.85,-187.17 493.11,-187.17 503.78,-187.17"/>
<polygon fill="black" stroke="black" points="503.54,-190.67 513.54,-187.17 503.54,-183.67 503.54,-190.67"/>
</g>
<!-- AppRunnerMatcher -->
<g id="node6" class="node">
<title>AppRunnerMatcher</title>
<polygon fill="#ffffff" stroke="black" points="593.96,-151.17 508.21,-151.17 508.21,-147.17 504.21,-147.17 504.21,-143.17 508.21,-143.17 508.21,-123.17 504.21,-123.17 504.21,-119.17 508.21,-119.17 508.21,-115.17 593.96,-115.17 593.96,-151.17"/>
<polyline fill="none" stroke="black" points="508.21,-147.17 512.21,-147.17 512.21,-143.17 508.21,-143.17"/>
<polyline fill="none" stroke="black" points="508.21,-123.17 512.21,-123.17 512.21,-119.17 508.21,-119.17"/>
<text text-anchor="middle" x="551.09" y="-128.12" font-family="Times,serif" font-size="14.00">Matcher Svc</text>
</g>
<!-- AppRunnerAPI&#45;&gt;AppRunnerMatcher -->
<g id="edge4" class="edge">
<title>AppRunnerAPI&#45;&gt;AppRunnerMatcher</title>
<path fill="none" stroke="black" d="M471.46,-168.89C480.37,-164.84 489.92,-160.5 499.19,-156.29"/>
<polygon fill="black" stroke="black" points="500.45,-159.57 508.1,-152.24 497.55,-153.19 500.45,-159.57"/>
</g>
<!-- RDSInstance -->
<g id="node7" class="node">
<title>RDSInstance</title>
<g id="a_node7"><a xlink:title="Contains User, Profile, Event, Participation tables">
<path fill="#77aaff" stroke="black" d="M977.83,-201.9C977.83,-203.7 941.97,-205.17 897.83,-205.17 853.69,-205.17 817.83,-203.7 817.83,-201.9 817.83,-201.9 817.83,-172.44 817.83,-172.44 817.83,-170.64 853.69,-169.17 897.83,-169.17 941.97,-169.17 977.83,-170.64 977.83,-172.44 977.83,-172.44 977.83,-201.9 977.83,-201.9"/>
<path fill="none" stroke="black" d="M977.83,-201.9C977.83,-200.09 941.97,-198.63 897.83,-198.63 853.69,-198.63 817.83,-200.09 817.83,-201.9"/>
<text text-anchor="middle" x="897.83" y="-182.12" font-family="Times,serif" font-size="14.00">RDS PostgreSQL Instance</text>
</a>
</g>
</g>
<!-- AppRunnerProfile&#45;&gt;RDSInstance -->
<g id="edge5" class="edge">
<title>AppRunnerProfile&#45;&gt;RDSInstance</title>
<path fill="none" stroke="black" d="M589.64,-235.29C641.24,-227.21 735.69,-212.41 806.29,-201.35"/>
<polygon fill="black" stroke="black" points="806.58,-204.85 815.92,-199.85 805.49,-197.93 806.58,-204.85"/>
</g>
<!-- S3DataBucket -->
<g id="node8" class="node">
<title>S3DataBucket</title>
<g id="a_node8"><a xlink:title="Stores raw audio files">
<path fill="#aa77ff" stroke="black" d="M933.96,-255.9C933.96,-257.7 917.76,-259.17 897.83,-259.17 877.9,-259.17 861.71,-257.7 861.71,-255.9 861.71,-255.9 861.71,-226.44 861.71,-226.44 861.71,-224.64 877.9,-223.17 897.83,-223.17 917.76,-223.17 933.96,-224.64 933.96,-226.44 933.96,-226.44 933.96,-255.9 933.96,-255.9"/>
<path fill="none" stroke="black" d="M933.96,-255.9C933.96,-254.09 917.76,-252.63 897.83,-252.63 877.9,-252.63 861.71,-254.09 861.71,-255.9"/>
<text text-anchor="middle" x="897.83" y="-236.12" font-family="Times,serif" font-size="14.00">S3 Bucket</text>
</a>
</g>
</g>
<!-- AppRunnerProfile&#45;&gt;S3DataBucket -->
<g id="edge6" class="edge">
<title>AppRunnerProfile&#45;&gt;S3DataBucket</title>
<path fill="none" stroke="black" d="M589.64,-241.17C652.99,-241.17 780.92,-241.17 850.02,-241.17"/>
<polygon fill="black" stroke="black" points="849.88,-244.67 859.88,-241.17 849.88,-237.67 849.88,-244.67"/>
</g>
<!-- LLMProvider -->
<g id="node10" class="node">
<title>LLMProvider</title>
<ellipse fill="#f0e8d0" stroke="black" cx="897.83" cy="-73.17" rx="95.37" ry="18"/>
<text text-anchor="middle" x="897.83" y="-68.12" font-family="Times,serif" font-size="14.00">LLM Service Provider</text>
</g>
<!-- AppRunnerProfile&#45;&gt;LLMProvider -->
<g id="edge10" class="edge">
<title>AppRunnerProfile&#45;&gt;LLMProvider</title>
<path fill="none" stroke="black" d="M589.55,-226.08C594.32,-222.78 598.68,-218.84 601.96,-214.17 618.91,-190.08 590.51,-168.84 611.96,-148.67 640.01,-122.31 752.9,-155.19 784.46,-133.17 799.79,-122.48 787.92,-106.9 802.46,-95.17 805.19,-92.97 808.1,-90.98 811.14,-89.19"/>
<polygon fill="black" stroke="black" points="812.55,-92.4 819.9,-84.77 809.4,-86.15 812.55,-92.4"/>
<text text-anchor="middle" x="698.21" y="-151.87" font-family="Times,serif" font-size="14.00"> API Call (Embed/Parse)</text>
</g>
<!-- AppRunnerEvent&#45;&gt;RDSInstance -->
<g id="edge7" class="edge">
<title>AppRunnerEvent&#45;&gt;RDSInstance</title>
<path fill="none" stroke="black" d="M587.04,-187.17C637.98,-187.17 734.36,-187.17 806.14,-187.17"/>
<polygon fill="black" stroke="black" points="805.93,-190.67 815.93,-187.17 805.93,-183.67 805.93,-190.67"/>
</g>
<!-- QdrantCloudService -->
<g id="node9" class="node">
<title>QdrantCloudService</title>
<ellipse fill="#f0d0f0" stroke="black" cx="897.83" cy="-19.17" rx="61.59" ry="18"/>
<text text-anchor="middle" x="897.83" y="-14.12" font-family="Times,serif" font-size="14.00">Qdrant Cloud</text>
</g>
<!-- AppRunnerEvent&#45;&gt;QdrantCloudService -->
<g id="edge12" class="edge">
<title>AppRunnerEvent&#45;&gt;QdrantCloudService</title>
<path fill="none" stroke="black" d="M587.31,-173.24C592.88,-169.7 598.08,-165.38 601.96,-160.17 614.87,-142.88 596.04,-127.23 611.96,-112.67 668.94,-60.57 723.38,-139.39 784.46,-92.17 801.83,-78.74 786.23,-60.95 802.46,-46.17 810.32,-39.02 819.95,-33.75 830.02,-29.87"/>
<polygon fill="black" stroke="black" points="830.82,-33.3 839.18,-26.79 828.59,-26.66 830.82,-33.3"/>
<text text-anchor="middle" x="698.21" y="-115.87" font-family="Times,serif" font-size="14.00"> API Call (Store Embeddings)</text>
</g>
<!-- AppRunnerMatcher&#45;&gt;RDSInstance -->
<g id="edge8" class="edge">
<title>AppRunnerMatcher&#45;&gt;RDSInstance</title>
<path fill="none" stroke="black" d="M590.24,-151.61C594.37,-154.24 598.37,-157.11 601.96,-160.17 607.51,-164.9 605.51,-169.79 611.96,-173.17 616.31,-175.45 724.53,-180.27 806.3,-183.62"/>
<polygon fill="black" stroke="black" points="806,-187.11 816.14,-184.02 806.29,-180.11 806,-187.11"/>
</g>
<!-- AppRunnerMatcher&#45;&gt;QdrantCloudService -->
<g id="edge13" class="edge">
<title>AppRunnerMatcher&#45;&gt;QdrantCloudService</title>
<path fill="none" stroke="black" d="M557.19,-115.04C564.84,-91.65 581.7,-51.81 611.96,-33.67 680.24,7.25 775.09,2.5 836.22,-6.7"/>
<polygon fill="black" stroke="black" points="835.31,-10.1 845.73,-8.22 836.41,-3.19 835.31,-10.1"/>
<text text-anchor="middle" x="698.21" y="-36.87" font-family="Times,serif" font-size="14.00"> API Call (Search Embeddings)</text>
</g>
<!-- AppRunnerMatcher&#45;&gt;LLMProvider -->
<g id="edge11" class="edge">
<title>AppRunnerMatcher&#45;&gt;LLMProvider</title>
<path fill="none" stroke="black" d="M564.96,-114.84C575.74,-101.2 592.48,-83.61 611.96,-75.67 677.8,-48.84 759.51,-51.35 818.51,-58.71"/>
<polygon fill="black" stroke="black" points="817.75,-62.14 828.13,-59.99 818.68,-55.2 817.75,-62.14"/>
<text text-anchor="middle" x="698.21" y="-78.87" font-family="Times,serif" font-size="14.00"> API Call (Explain Match)</text>
</g>
</g>
</svg>
