<?xml version="1.0" encoding="UTF-8" standalone="no"?>
<!DOCTYPE svg PUBLIC "-//W3C//DTD SVG 1.1//EN"
 "http://www.w3.org/Graphics/SVG/1.1/DTD/svg11.dtd">
<!-- Generated by graphviz version 12.2.1 (20241206.2353)
 -->
<!-- Title: BackendServices Pages: 1 -->
<svg width="1205pt" height="595pt"
 viewBox="0.00 0.00 1205.45 594.88" xmlns="http://www.w3.org/2000/svg" xmlns:xlink="http://www.w3.org/1999/xlink">
<g id="graph0" class="graph" transform="scale(1 1) rotate(0) translate(4 590.88)">
<title>BackendServices</title>
<polygon fill="white" stroke="none" points="-4,4 -4,-590.88 1201.45,-590.88 1201.45,4 -4,4"/>
<text text-anchor="middle" x="598.73" y="-567.67" font-family="Times,serif" font-size="16.00">Backend Service Interactions (Derived from Onboarding Flow)</text>
<g id="clust1" class="cluster">
<title>cluster_AppServices</title>
<polygon fill="lightgrey" stroke="lightgrey" points="579.48,-93.19 579.48,-481.62 1078.48,-481.62 1078.48,-93.19 579.48,-93.19"/>
<text text-anchor="middle" x="828.98" y="-462.43" font-family="Times,serif" font-size="16.00">Application Services</text>
</g>
<!-- APIGateway -->
<g id="node1" class="node">
<title>APIGateway</title>
<polygon fill="#ffbb50" stroke="black" points="925,-542.12 889.74,-560.12 819.22,-560.12 783.95,-542.12 819.22,-524.12 889.74,-524.12 925,-542.12"/>
<text text-anchor="middle" x="854.48" y="-537.08" font-family="Times,serif" font-size="14.00">API Gateway</text>
</g>
<!-- OnboardingService -->
<g id="node2" class="node">
<title>OnboardingService</title>
<polygon fill="#e0f7fa" stroke="black" points="878.73,-353.38 798.23,-353.38 798.23,-349.38 794.23,-349.38 794.23,-345.38 798.23,-345.38 798.23,-320.38 794.23,-320.38 794.23,-316.38 798.23,-316.38 798.23,-312.38 878.73,-312.38 878.73,-353.38"/>
<polyline fill="none" stroke="black" points="798.23,-349.38 802.23,-349.38 802.23,-345.38 798.23,-345.38"/>
<polyline fill="none" stroke="black" points="798.23,-320.38 802.23,-320.38 802.23,-316.38 798.23,-316.38"/>
<text text-anchor="middle" x="838.48" y="-336.07" font-family="Times,serif" font-size="14.00">Onboarding</text>
<text text-anchor="middle" x="838.48" y="-319.57" font-family="Times,serif" font-size="14.00">Service</text>
</g>
<!-- APIGateway&#45;&gt;OnboardingService -->
<g id="edge1" class="edge">
<title>APIGateway&#45;&gt;OnboardingService</title>
<path fill="none" stroke="black" d="M852.37,-523.7C850.98,-511.85 849.21,-495.81 847.98,-481.62 844.48,-441.34 841.7,-394.77 840.07,-364.85"/>
<polygon fill="black" stroke="black" points="843.57,-364.8 839.54,-355.01 836.58,-365.18 843.57,-364.8"/>
<text text-anchor="middle" x="887.73" y="-421.32" font-family="Times,serif" font-size="14.00"> /onboarding/*</text>
</g>
<!-- AuthenticationService -->
<g id="node3" class="node">
<title>AuthenticationService</title>
<polygon fill="#e0f7fa" stroke="black" points="1032.6,-446.88 936.35,-446.88 936.35,-442.88 932.35,-442.88 932.35,-438.88 936.35,-438.88 936.35,-413.88 932.35,-413.88 932.35,-409.88 936.35,-409.88 936.35,-405.88 1032.6,-405.88 1032.6,-446.88"/>
<polyline fill="none" stroke="black" points="936.35,-442.88 940.35,-442.88 940.35,-438.88 936.35,-438.88"/>
<polyline fill="none" stroke="black" points="936.35,-413.88 940.35,-413.88 940.35,-409.88 936.35,-409.88"/>
<text text-anchor="middle" x="984.48" y="-429.57" font-family="Times,serif" font-size="14.00">Authentication</text>
<text text-anchor="middle" x="984.48" y="-413.07" font-family="Times,serif" font-size="14.00">Service</text>
</g>
<!-- APIGateway&#45;&gt;AuthenticationService -->
<g id="edge2" class="edge">
<title>APIGateway&#45;&gt;AuthenticationService</title>
<path fill="none" stroke="black" d="M874.22,-523.85C895.22,-505.47 928.74,-476.14 953.31,-454.64"/>
<polygon fill="black" stroke="black" points="955.56,-457.33 960.78,-448.11 950.95,-452.06 955.56,-457.33"/>
<text text-anchor="middle" x="951.44" y="-492.82" font-family="Times,serif" font-size="14.00"> /auth/callback</text>
</g>
<!-- UserService -->
<g id="node4" class="node">
<title>UserService</title>
<polygon fill="#e0f7fa" stroke="black" points="643.73,-243.38 587.23,-243.38 587.23,-239.38 583.23,-239.38 583.23,-235.38 587.23,-235.38 587.23,-210.38 583.23,-210.38 583.23,-206.38 587.23,-206.38 587.23,-202.38 643.73,-202.38 643.73,-243.38"/>
<polyline fill="none" stroke="black" points="587.23,-239.38 591.23,-239.38 591.23,-235.38 587.23,-235.38"/>
<polyline fill="none" stroke="black" points="587.23,-210.38 591.23,-210.38 591.23,-206.38 587.23,-206.38"/>
<text text-anchor="middle" x="615.48" y="-226.07" font-family="Times,serif" font-size="14.00">User</text>
<text text-anchor="middle" x="615.48" y="-209.57" font-family="Times,serif" font-size="14.00">Service</text>
</g>
<!-- OnboardingService&#45;&gt;UserService -->
<g id="edge3" class="edge">
<title>OnboardingService&#45;&gt;UserService</title>
<path fill="none" stroke="black" d="M797.82,-331.52C737.02,-330.02 626.9,-323.27 602.23,-294.38 592.85,-283.39 594.69,-267.89 599.51,-254.21"/>
<polygon fill="black" stroke="black" points="602.66,-255.74 603.27,-245.16 596.2,-253.05 602.66,-255.74"/>
<text text-anchor="middle" x="655.85" y="-272.82" font-family="Times,serif" font-size="14.00">Create/Update User</text>
</g>
<!-- ProfileService -->
<g id="node5" class="node">
<title>ProfileService</title>
<polygon fill="#e0f7fa" stroke="black" points="718.73,-243.38 662.23,-243.38 662.23,-239.38 658.23,-239.38 658.23,-235.38 662.23,-235.38 662.23,-210.38 658.23,-210.38 658.23,-206.38 662.23,-206.38 662.23,-202.38 718.73,-202.38 718.73,-243.38"/>
<polyline fill="none" stroke="black" points="662.23,-239.38 666.23,-239.38 666.23,-235.38 662.23,-235.38"/>
<polyline fill="none" stroke="black" points="662.23,-210.38 666.23,-210.38 666.23,-206.38 662.23,-206.38"/>
<text text-anchor="middle" x="690.48" y="-226.07" font-family="Times,serif" font-size="14.00">Profile</text>
<text text-anchor="middle" x="690.48" y="-209.57" font-family="Times,serif" font-size="14.00">Service</text>
</g>
<!-- OnboardingService&#45;&gt;ProfileService -->
<g id="edge4" class="edge">
<title>OnboardingService&#45;&gt;ProfileService</title>
<path fill="none" stroke="black" d="M797.84,-324.41C776.71,-318.91 751.5,-309.64 732.98,-294.38 719.83,-283.54 722.27,-275.97 713.48,-261.38 711.91,-258.77 710.27,-256.06 708.62,-253.35"/>
<polygon fill="black" stroke="black" points="711.7,-251.69 703.5,-244.98 705.73,-255.34 711.7,-251.69"/>
<text text-anchor="middle" x="772.73" y="-281.07" font-family="Times,serif" font-size="14.00">Create Profile,</text>
<text text-anchor="middle" x="772.73" y="-264.57" font-family="Times,serif" font-size="14.00">Process Audio</text>
</g>
<!-- EventService -->
<g id="node6" class="node">
<title>EventService</title>
<polygon fill="#e0f7fa" stroke="black" points="927.73,-243.38 871.23,-243.38 871.23,-239.38 867.23,-239.38 867.23,-235.38 871.23,-235.38 871.23,-210.38 867.23,-210.38 867.23,-206.38 871.23,-206.38 871.23,-202.38 927.73,-202.38 927.73,-243.38"/>
<polyline fill="none" stroke="black" points="871.23,-239.38 875.23,-239.38 875.23,-235.38 871.23,-235.38"/>
<polyline fill="none" stroke="black" points="871.23,-210.38 875.23,-210.38 875.23,-206.38 871.23,-206.38"/>
<text text-anchor="middle" x="899.48" y="-226.07" font-family="Times,serif" font-size="14.00">Event</text>
<text text-anchor="middle" x="899.48" y="-209.57" font-family="Times,serif" font-size="14.00">Service</text>
</g>
<!-- OnboardingService&#45;&gt;EventService -->
<g id="edge5" class="edge">
<title>OnboardingService&#45;&gt;EventService</title>
<path fill="none" stroke="black" d="M879.06,-327.2C899.9,-322.51 923.57,-313.13 936.48,-294.38 944.79,-282.29 942.05,-274.94 936.48,-261.38 935.17,-258.18 933.44,-255.11 931.44,-252.2"/>
<polygon fill="black" stroke="black" points="934.32,-250.2 925.29,-244.65 928.9,-254.62 934.32,-250.2"/>
<text text-anchor="middle" x="997.61" y="-281.07" font-family="Times,serif" font-size="14.00">Create Participation,</text>
<text text-anchor="middle" x="997.61" y="-264.57" font-family="Times,serif" font-size="14.00">Process Audio</text>
</g>
<!-- MatchService -->
<g id="node7" class="node">
<title>MatchService</title>
<polygon fill="#e0f7fa" stroke="black" points="793.73,-243.38 737.23,-243.38 737.23,-239.38 733.23,-239.38 733.23,-235.38 737.23,-235.38 737.23,-210.38 733.23,-210.38 733.23,-206.38 737.23,-206.38 737.23,-202.38 793.73,-202.38 793.73,-243.38"/>
<polyline fill="none" stroke="black" points="737.23,-239.38 741.23,-239.38 741.23,-235.38 737.23,-235.38"/>
<polyline fill="none" stroke="black" points="737.23,-210.38 741.23,-210.38 741.23,-206.38 737.23,-206.38"/>
<text text-anchor="middle" x="765.48" y="-226.07" font-family="Times,serif" font-size="14.00">Match</text>
<text text-anchor="middle" x="765.48" y="-209.57" font-family="Times,serif" font-size="14.00">Service</text>
</g>
<!-- OnboardingService&#45;&gt;MatchService -->
<g id="edge8" class="edge">
<title>OnboardingService&#45;&gt;MatchService</title>
<path fill="none" stroke="black" d="M835.75,-312.14C832.9,-297.12 827.27,-276.51 816.48,-261.38 812.81,-256.23 808.21,-251.51 803.3,-247.27"/>
<polygon fill="black" stroke="black" points="805.45,-244.51 795.42,-241.12 801.15,-250.03 805.45,-244.51"/>
<text text-anchor="middle" x="879.79" y="-272.82" font-family="Times,serif" font-size="14.00">Trigger Matching</text>
</g>
<!-- RDS -->
<g id="node9" class="node">
<title>RDS</title>
<path fill="#a0c4ff" stroke="black" d="M148.98,-144.75C148.98,-147.58 128.58,-149.88 103.48,-149.88 78.37,-149.88 57.98,-147.58 57.98,-144.75 57.98,-144.75 57.98,-98.62 57.98,-98.62 57.98,-95.8 78.37,-93.5 103.48,-93.5 128.58,-93.5 148.98,-95.8 148.98,-98.62 148.98,-98.62 148.98,-144.75 148.98,-144.75"/>
<path fill="none" stroke="black" d="M148.98,-144.75C148.98,-141.92 128.58,-139.62 103.48,-139.62 78.37,-139.62 57.98,-141.92 57.98,-144.75"/>
<text text-anchor="middle" x="103.48" y="-124.89" font-family="Times,serif" font-size="14.00">RDS</text>
<text text-anchor="middle" x="103.48" y="-108.39" font-family="Times,serif" font-size="14.00">(PostgreSQL)</text>
</g>
<!-- OnboardingService&#45;&gt;RDS -->
<g id="edge6" class="edge">
<title>OnboardingService&#45;&gt;RDS</title>
<path fill="none" stroke="black" d="M797.74,-331.28C644.77,-328.09 108.17,-308.14 5.48,-184.38 -11.86,-163.48 16.38,-147.46 46.93,-136.99"/>
<polygon fill="black" stroke="black" points="47.86,-140.36 56.32,-133.98 45.73,-133.7 47.86,-140.36"/>
<text text-anchor="middle" x="140.87" y="-217.82" font-family="Times,serif" font-size="14.00">CRUD Session</text>
</g>
<!-- S3 -->
<g id="node10" class="node">
<title>S3</title>
<path fill="#ffbdbd" stroke="black" d="M1073.6,-35.23C1073.6,-37.03 1057.41,-38.5 1037.48,-38.5 1017.54,-38.5 1001.35,-37.03 1001.35,-35.23 1001.35,-35.23 1001.35,-5.77 1001.35,-5.77 1001.35,-3.97 1017.54,-2.5 1037.48,-2.5 1057.41,-2.5 1073.6,-3.97 1073.6,-5.77 1073.6,-5.77 1073.6,-35.23 1073.6,-35.23"/>
<path fill="none" stroke="black" d="M1073.6,-35.23C1073.6,-33.42 1057.41,-31.95 1037.48,-31.95 1017.54,-31.95 1001.35,-33.42 1001.35,-35.23"/>
<text text-anchor="middle" x="1037.48" y="-15.45" font-family="Times,serif" font-size="14.00">S3 Bucket</text>
</g>
<!-- OnboardingService&#45;&gt;S3 -->
<g id="edge7" class="edge">
<title>OnboardingService&#45;&gt;S3</title>
<path fill="none" stroke="black" d="M879,-330.94C935.92,-328.67 1035.1,-320.91 1057.48,-294.38 1117.07,-223.71 1074.51,-102.81 1050.66,-48.87"/>
<polygon fill="black" stroke="black" points="1054,-47.75 1046.67,-40.09 1047.63,-50.65 1054,-47.75"/>
<text text-anchor="middle" x="1142.33" y="-171.07" font-family="Times,serif" font-size="14.00">Gen Presigned URL</text>
</g>
<!-- AuthenticationService&#45;&gt;OnboardingService -->
<g id="edge10" class="edge">
<title>AuthenticationService&#45;&gt;OnboardingService</title>
<path fill="none" stroke="black" d="M952.8,-405.52C931.44,-392.14 903.06,-374.35 879.91,-359.84"/>
<polygon fill="black" stroke="black" points="881.96,-357 871.63,-354.65 878.25,-362.93 881.96,-357"/>
<text text-anchor="middle" x="946.3" y="-374.57" font-family="Times,serif" font-size="14.00">Finalize</text>
</g>
<!-- Cognito -->
<g id="node12" class="node">
<title>Cognito</title>
<path fill="#ffcaa0" stroke="black" d="M1168.1,-350.88C1168.1,-350.88 1098.85,-350.88 1098.85,-350.88 1092.85,-350.88 1086.85,-344.88 1086.85,-338.88 1086.85,-338.88 1086.85,-326.88 1086.85,-326.88 1086.85,-320.88 1092.85,-314.88 1098.85,-314.88 1098.85,-314.88 1168.1,-314.88 1168.1,-314.88 1174.1,-314.88 1180.1,-320.88 1180.1,-326.88 1180.1,-326.88 1180.1,-338.88 1180.1,-338.88 1180.1,-344.88 1174.1,-350.88 1168.1,-350.88"/>
<text text-anchor="middle" x="1133.48" y="-327.82" font-family="Times,serif" font-size="14.00">AWS Cognito</text>
</g>
<!-- AuthenticationService&#45;&gt;Cognito -->
<g id="edge9" class="edge">
<title>AuthenticationService&#45;&gt;Cognito</title>
<path fill="none" stroke="black" d="M1016.81,-405.52C1039.98,-391.29 1071.26,-372.08 1095.6,-357.13"/>
<polygon fill="black" stroke="black" points="1097.25,-360.23 1103.94,-352.02 1093.58,-354.27 1097.25,-360.23"/>
<text text-anchor="middle" x="1115.07" y="-374.57" font-family="Times,serif" font-size="14.00">Exchange Code</text>
</g>
<!-- UserService&#45;&gt;RDS -->
<g id="edge11" class="edge">
<title>UserService&#45;&gt;RDS</title>
<path fill="none" stroke="black" d="M586.77,-221.16C469.81,-218.13 34.54,-205.46 14.73,-184.38 -1.78,-166.81 20.63,-151.34 47.05,-140.29"/>
<polygon fill="black" stroke="black" points="48.25,-143.57 56.29,-136.67 45.7,-137.05 48.25,-143.57"/>
<text text-anchor="middle" x="48.1" y="-171.07" font-family="Times,serif" font-size="14.00">CRUD User</text>
</g>
<!-- ContentExtractionService -->
<g id="node8" class="node">
<title>ContentExtractionService</title>
<polygon fill="#e0f7fa" stroke="black" points="913.85,-142.19 795.1,-142.19 795.1,-138.19 791.1,-138.19 791.1,-134.19 795.1,-134.19 795.1,-109.19 791.1,-109.19 791.1,-105.19 795.1,-105.19 795.1,-101.19 913.85,-101.19 913.85,-142.19"/>
<polyline fill="none" stroke="black" points="795.1,-138.19 799.1,-138.19 799.1,-134.19 795.1,-134.19"/>
<polyline fill="none" stroke="black" points="795.1,-109.19 799.1,-109.19 799.1,-105.19 795.1,-105.19"/>
<text text-anchor="middle" x="854.48" y="-124.89" font-family="Times,serif" font-size="14.00">Content Extraction</text>
<text text-anchor="middle" x="854.48" y="-108.39" font-family="Times,serif" font-size="14.00">Service</text>
</g>
<!-- ProfileService&#45;&gt;ContentExtractionService -->
<g id="edge13" class="edge">
<title>ProfileService&#45;&gt;ContentExtractionService</title>
<path fill="none" stroke="black" d="M719.17,-206.16C722.27,-204.77 725.4,-203.47 728.48,-202.38 764.44,-189.55 780.8,-205.68 812.48,-184.38 824.2,-176.49 833.56,-164.13 840.44,-152.53"/>
<polygon fill="black" stroke="black" points="843.38,-154.45 845.12,-144 837.24,-151.09 843.38,-154.45"/>
<text text-anchor="middle" x="883.11" y="-171.07" font-family="Times,serif" font-size="14.00">Extract Profile Data</text>
</g>
<!-- ProfileService&#45;&gt;RDS -->
<g id="edge12" class="edge">
<title>ProfileService&#45;&gt;RDS</title>
<path fill="none" stroke="black" d="M661.96,-205.59C658.83,-204.31 655.64,-203.19 652.48,-202.38 622.99,-194.74 125.84,-206.09 104.48,-184.38 98.54,-178.34 96.17,-170.15 95.74,-161.71"/>
<polygon fill="black" stroke="black" points="99.24,-161.86 96.13,-151.73 92.24,-161.59 99.24,-161.86"/>
<text text-anchor="middle" x="143.48" y="-171.07" font-family="Times,serif" font-size="14.00">CRUD Profile</text>
</g>
<!-- QdrantCloud -->
<g id="node14" class="node">
<title>QdrantCloud</title>
<path fill="#bdb2ff" stroke="black" d="M457.6,-136.41C457.6,-138.22 437.38,-139.69 412.48,-139.69 387.58,-139.69 367.35,-138.22 367.35,-136.41 367.35,-136.41 367.35,-106.96 367.35,-106.96 367.35,-105.15 387.58,-103.69 412.48,-103.69 437.38,-103.69 457.6,-105.15 457.6,-106.96 457.6,-106.96 457.6,-136.41 457.6,-136.41"/>
<path fill="none" stroke="black" d="M457.6,-136.41C457.6,-134.61 437.38,-133.14 412.48,-133.14 387.58,-133.14 367.35,-134.61 367.35,-136.41"/>
<text text-anchor="middle" x="412.48" y="-116.64" font-family="Times,serif" font-size="14.00">Qdrant Cloud</text>
</g>
<!-- ProfileService&#45;&gt;QdrantCloud -->
<g id="edge14" class="edge">
<title>ProfileService&#45;&gt;QdrantCloud</title>
<path fill="none" stroke="black" d="M661.94,-205.64C658.82,-204.35 655.63,-203.22 652.48,-202.38 613.28,-191.88 315.7,-213.77 287.73,-184.38 262.16,-157.51 312.1,-140.69 356.19,-131.52"/>
<polygon fill="black" stroke="black" points="356.6,-135 365.74,-129.64 355.25,-128.14 356.6,-135"/>
<text text-anchor="middle" x="339.1" y="-171.07" font-family="Times,serif" font-size="14.00">Store Profile Emb.</text>
</g>
<!-- EventService&#45;&gt;ContentExtractionService -->
<g id="edge16" class="edge">
<title>EventService&#45;&gt;ContentExtractionService</title>
<path fill="none" stroke="black" d="M928.13,-204.85C941.43,-194.67 952.68,-181.17 944.48,-167.88 939.28,-159.44 931.97,-152.53 923.74,-146.87"/>
<polygon fill="black" stroke="black" points="925.77,-144.02 915.41,-141.8 922.13,-149.99 925.77,-144.02"/>
<text text-anchor="middle" x="999.01" y="-171.07" font-family="Times,serif" font-size="14.00">Extract Event Data</text>
</g>
<!-- EventService&#45;&gt;RDS -->
<g id="edge15" class="edge">
<title>EventService&#45;&gt;RDS</title>
<path fill="none" stroke="black" d="M870.78,-215.09C851.56,-210.8 825.63,-205.5 802.48,-202.38 745.47,-194.69 598.08,-204.6 544.23,-184.38 532.87,-180.11 533.75,-172.36 522.48,-167.88 521.43,-167.46 275.12,-141.06 160.69,-128.81"/>
<polygon fill="black" stroke="black" points="161.2,-125.34 150.88,-127.76 160.45,-132.3 161.2,-125.34"/>
<text text-anchor="middle" x="599.35" y="-171.07" font-family="Times,serif" font-size="14.00">CRUD Participation</text>
</g>
<!-- EventService&#45;&gt;QdrantCloud -->
<g id="edge17" class="edge">
<title>EventService&#45;&gt;QdrantCloud</title>
<path fill="none" stroke="black" d="M871.08,-215.97C851.76,-212 825.61,-206.72 802.48,-202.38 756.91,-193.81 744.32,-197.05 699.73,-184.38 680.73,-178.98 677.45,-173.35 658.48,-167.88 623.77,-157.85 530.25,-141.77 469.04,-131.74"/>
<polygon fill="black" stroke="black" points="469.93,-128.34 459.5,-130.18 468.81,-135.25 469.93,-128.34"/>
<text text-anchor="middle" x="754.1" y="-171.07" font-family="Times,serif" font-size="14.00">Store Context Emb.</text>
</g>
<!-- MatchService&#45;&gt;RDS -->
<g id="edge21" class="edge">
<title>MatchService&#45;&gt;RDS</title>
<path fill="none" stroke="black" d="M736.96,-205.6C733.83,-204.31 730.64,-203.2 727.48,-202.38 617.68,-173.79 326.69,-214.21 217.23,-184.38 210.53,-182.55 183.74,-168.08 157.85,-153.62"/>
<polygon fill="black" stroke="black" points="159.77,-150.68 149.33,-148.85 156.34,-156.79 159.77,-150.68"/>
<text text-anchor="middle" x="246.85" y="-171.07" font-family="Times,serif" font-size="14.00">Fetch Data</text>
</g>
<!-- LLMService -->
<g id="node13" class="node">
<title>LLMService</title>
<path fill="#caffbf" stroke="black" d="M747.23,-38.5C747.23,-38.5 681.73,-38.5 681.73,-38.5 675.73,-38.5 669.73,-32.5 669.73,-26.5 669.73,-26.5 669.73,-14.5 669.73,-14.5 669.73,-8.5 675.73,-2.5 681.73,-2.5 681.73,-2.5 747.23,-2.5 747.23,-2.5 753.23,-2.5 759.23,-8.5 759.23,-14.5 759.23,-14.5 759.23,-26.5 759.23,-26.5 759.23,-32.5 753.23,-38.5 747.23,-38.5"/>
<text text-anchor="middle" x="714.48" y="-15.45" font-family="Times,serif" font-size="14.00">LLM Service</text>
</g>
<!-- MatchService&#45;&gt;LLMService -->
<g id="edge23" class="edge">
<title>MatchService&#45;&gt;LLMService</title>
<path fill="none" stroke="black" d="M736.97,-206.92C733.79,-205.34 730.58,-203.8 727.48,-202.38 708.28,-193.54 695.25,-201.92 683.48,-184.38 655.71,-143.01 679.66,-83.12 698.09,-48.67"/>
<polygon fill="black" stroke="black" points="701.02,-50.6 702.83,-40.16 694.91,-47.19 701.02,-50.6"/>
<text text-anchor="middle" x="719.25" y="-116.64" font-family="Times,serif" font-size="14.00">Explain Match</text>
</g>
<!-- MatchService&#45;&gt;QdrantCloud -->
<g id="edge22" class="edge">
<title>MatchService&#45;&gt;QdrantCloud</title>
<path fill="none" stroke="black" d="M736.94,-205.67C733.81,-204.37 730.63,-203.23 727.48,-202.38 693.79,-193.21 437.96,-209.52 413.73,-184.38 405.42,-175.76 404.13,-162.91 405.31,-151.16"/>
<polygon fill="black" stroke="black" points="408.73,-151.91 406.9,-141.48 401.83,-150.78 408.73,-151.91"/>
<text text-anchor="middle" x="468.1" y="-171.07" font-family="Times,serif" font-size="14.00">Search Embeddings</text>
</g>
<!-- ContentExtractionService&#45;&gt;S3 -->
<g id="edge18" class="edge">
<title>ContentExtractionService&#45;&gt;S3</title>
<path fill="none" stroke="black" d="M891.07,-100.85C921.75,-84.22 965.51,-60.51 997.19,-43.34"/>
<polygon fill="black" stroke="black" points="998.56,-46.58 1005.68,-38.73 995.22,-40.42 998.56,-46.58"/>
<text text-anchor="middle" x="995.88" y="-62.2" font-family="Times,serif" font-size="14.00">Get Audio</text>
</g>
<!-- Transcribe -->
<g id="node11" class="node">
<title>Transcribe</title>
<path fill="#fff6a0" stroke="black" d="M895.85,-41C895.85,-41 813.1,-41 813.1,-41 807.1,-41 801.1,-35 801.1,-29 801.1,-29 801.1,-12 801.1,-12 801.1,-6 807.1,0 813.1,0 813.1,0 895.85,0 895.85,0 901.85,0 907.85,-6 907.85,-12 907.85,-12 907.85,-29 907.85,-29 907.85,-35 901.85,-41 895.85,-41"/>
<text text-anchor="middle" x="854.48" y="-23.7" font-family="Times,serif" font-size="14.00">AWS Transcribe</text>
<text text-anchor="middle" x="854.48" y="-7.2" font-family="Times,serif" font-size="14.00">(STT)</text>
</g>
<!-- ContentExtractionService&#45;&gt;Transcribe -->
<g id="edge19" class="edge">
<title>ContentExtractionService&#45;&gt;Transcribe</title>
<path fill="none" stroke="black" d="M854.48,-101.09C854.48,-87.32 854.48,-68.62 854.48,-52.8"/>
<polygon fill="black" stroke="black" points="857.98,-52.91 854.48,-42.91 850.98,-52.91 857.98,-52.91"/>
<text text-anchor="middle" x="883.35" y="-62.2" font-family="Times,serif" font-size="14.00">Transcribe</text>
</g>
<!-- ContentExtractionService&#45;&gt;LLMService -->
<g id="edge20" class="edge">
<title>ContentExtractionService&#45;&gt;LLMService</title>
<path fill="none" stroke="black" d="M805.3,-100.75C790.91,-93.81 775.59,-85.27 762.73,-75.5 752.26,-67.55 742.29,-57.08 734.16,-47.48"/>
<polygon fill="black" stroke="black" points="736.96,-45.37 727.93,-39.83 731.53,-49.79 736.96,-45.37"/>
<text text-anchor="middle" x="806.6" y="-62.2" font-family="Times,serif" font-size="14.00">Parse Transcript</text>
</g>
</g>
</svg>
