<?xml version="1.0" encoding="UTF-8" standalone="no"?>
<!DOCTYPE svg PUBLIC "-//W3C//DTD SVG 1.1//EN"
 "http://www.w3.org/Graphics/SVG/1.1/DTD/svg11.dtd">
<!-- Generated by graphviz version 12.2.1 (20241206.2353)
 -->
<!-- Title: ConceptualDataModel Pages: 1 -->
<svg width="426pt" height="443pt"
 viewBox="0.00 0.00 425.50 443.00" xmlns="http://www.w3.org/2000/svg" xmlns:xlink="http://www.w3.org/1999/xlink">
<g id="graph0" class="graph" transform="scale(1 1) rotate(0) translate(4 439)">
<title>ConceptualDataModel</title>
<polygon fill="white" stroke="none" points="-4,4 -4,-439 421.5,-439 421.5,4 -4,4"/>
<!-- User -->
<g id="node1" class="node">
<title>User</title>
<polygon fill="lightblue" stroke="none" points="29.62,-401.25 29.62,-423.75 205.88,-423.75 205.88,-401.25 29.62,-401.25"/>
<polygon fill="none" stroke="black" points="29.62,-401.25 29.62,-423.75 205.88,-423.75 205.88,-401.25 29.62,-401.25"/>
<text text-anchor="start" x="105" y="-407.45" font-family="Times,serif" font-size="14.00">User</text>
<polygon fill="none" stroke="black" points="29.62,-378.75 29.62,-401.25 133.88,-401.25 133.88,-378.75 29.62,-378.75"/>
<text text-anchor="start" x="32.62" y="-384.95" font-family="Times,serif" font-size="14.00">id</text>
<polygon fill="none" stroke="black" points="133.88,-378.75 133.88,-401.25 205.88,-401.25 205.88,-378.75 133.88,-378.75"/>
<text text-anchor="start" x="136.88" y="-384.95" font-family="Times,serif" font-size="14.00">string (PK)</text>
<polygon fill="none" stroke="black" points="29.62,-356.25 29.62,-378.75 133.88,-378.75 133.88,-356.25 29.62,-356.25"/>
<text text-anchor="start" x="32.62" y="-362.45" font-family="Times,serif" font-size="14.00">email</text>
<polygon fill="none" stroke="black" points="133.88,-356.25 133.88,-378.75 205.88,-378.75 205.88,-356.25 133.88,-356.25"/>
<text text-anchor="start" x="136.88" y="-362.45" font-family="Times,serif" font-size="14.00">string</text>
<polygon fill="none" stroke="black" points="29.62,-333.75 29.62,-356.25 133.88,-356.25 133.88,-333.75 29.62,-333.75"/>
<text text-anchor="start" x="32.62" y="-339.95" font-family="Times,serif" font-size="14.00">auth_provider_id</text>
<polygon fill="none" stroke="black" points="133.88,-333.75 133.88,-356.25 205.88,-356.25 205.88,-333.75 133.88,-333.75"/>
<text text-anchor="start" x="136.88" y="-339.95" font-family="Times,serif" font-size="14.00">string</text>
<polygon fill="none" stroke="black" points="29.62,-311.25 29.62,-333.75 133.88,-333.75 133.88,-311.25 29.62,-311.25"/>
<text text-anchor="start" x="32.62" y="-317.45" font-family="Times,serif" font-size="14.00">created_at</text>
<polygon fill="none" stroke="black" points="133.88,-311.25 133.88,-333.75 205.88,-333.75 205.88,-311.25 133.88,-311.25"/>
<text text-anchor="start" x="136.88" y="-317.45" font-family="Times,serif" font-size="14.00">timestamp</text>
<polygon fill="none" stroke="black" points="29.62,-288.75 29.62,-311.25 133.88,-311.25 133.88,-288.75 29.62,-288.75"/>
<text text-anchor="start" x="32.62" y="-294.95" font-family="Times,serif" font-size="14.00">updated_at</text>
<polygon fill="none" stroke="black" points="133.88,-288.75 133.88,-311.25 205.88,-311.25 205.88,-288.75 133.88,-288.75"/>
<text text-anchor="start" x="136.88" y="-294.95" font-family="Times,serif" font-size="14.00">timestamp</text>
<polygon fill="lightgrey" stroke="none" points="29.62,-266.25 29.62,-288.75 205.88,-288.75 205.88,-266.25 29.62,-266.25"/>
<polygon fill="none" stroke="black" points="29.62,-266.25 29.62,-288.75 205.88,-288.75 205.88,-266.25 29.62,-266.25"/>
<text text-anchor="start" x="32.62" y="-272.45" font-family="Times,serif" font-size="14.00">Authentication &amp; Account Info</text>
</g>
<!-- Profile -->
<g id="node2" class="node">
<title>Profile</title>
<polygon fill="lightblue" stroke="none" points="0,-168.75 0,-191.25 199.5,-191.25 199.5,-168.75 0,-168.75"/>
<polygon fill="none" stroke="black" points="0,-168.75 0,-191.25 199.5,-191.25 199.5,-168.75 0,-168.75"/>
<text text-anchor="start" x="81.38" y="-174.95" font-family="Times,serif" font-size="14.00">Profile</text>
<polygon fill="none" stroke="black" points="0,-146.25 0,-168.75 132.75,-168.75 132.75,-146.25 0,-146.25"/>
<text text-anchor="start" x="3" y="-152.45" font-family="Times,serif" font-size="14.00">user_id</text>
<polygon fill="none" stroke="black" points="132.75,-146.25 132.75,-168.75 199.5,-168.75 199.5,-146.25 132.75,-146.25"/>
<text text-anchor="start" x="135.75" y="-152.45" font-family="Times,serif" font-size="14.00">string (FK)</text>
<polygon fill="none" stroke="black" points="0,-123.75 0,-146.25 132.75,-146.25 132.75,-123.75 0,-123.75"/>
<text text-anchor="start" x="3" y="-129.95" font-family="Times,serif" font-size="14.00">data</text>
<polygon fill="none" stroke="black" points="132.75,-123.75 132.75,-146.25 199.5,-146.25 199.5,-123.75 132.75,-123.75"/>
<text text-anchor="start" x="135.75" y="-129.95" font-family="Times,serif" font-size="14.00">jsonb</text>
<polygon fill="none" stroke="black" points="0,-101.25 0,-123.75 132.75,-123.75 132.75,-101.25 0,-101.25"/>
<text text-anchor="start" x="3" y="-107.45" font-family="Times,serif" font-size="14.00">raw_input_ref</text>
<polygon fill="none" stroke="black" points="132.75,-101.25 132.75,-123.75 199.5,-123.75 199.5,-101.25 132.75,-101.25"/>
<text text-anchor="start" x="135.75" y="-107.45" font-family="Times,serif" font-size="14.00">string</text>
<polygon fill="none" stroke="black" points="0,-78.75 0,-101.25 132.75,-101.25 132.75,-78.75 0,-78.75"/>
<text text-anchor="start" x="3" y="-84.95" font-family="Times,serif" font-size="14.00">embedding_updated_at</text>
<polygon fill="none" stroke="black" points="132.75,-78.75 132.75,-101.25 199.5,-101.25 199.5,-78.75 132.75,-78.75"/>
<text text-anchor="start" x="135.75" y="-84.95" font-family="Times,serif" font-size="14.00">timestamp</text>
<polygon fill="none" stroke="black" points="0,-56.25 0,-78.75 132.75,-78.75 132.75,-56.25 0,-56.25"/>
<text text-anchor="start" x="3" y="-62.45" font-family="Times,serif" font-size="14.00">created_at</text>
<polygon fill="none" stroke="black" points="132.75,-56.25 132.75,-78.75 199.5,-78.75 199.5,-56.25 132.75,-56.25"/>
<text text-anchor="start" x="135.75" y="-62.45" font-family="Times,serif" font-size="14.00">timestamp</text>
<polygon fill="none" stroke="black" points="0,-33.75 0,-56.25 132.75,-56.25 132.75,-33.75 0,-33.75"/>
<text text-anchor="start" x="3" y="-39.95" font-family="Times,serif" font-size="14.00">updated_at</text>
<polygon fill="none" stroke="black" points="132.75,-33.75 132.75,-56.25 199.5,-56.25 199.5,-33.75 132.75,-33.75"/>
<text text-anchor="start" x="135.75" y="-39.95" font-family="Times,serif" font-size="14.00">timestamp</text>
<polygon fill="lightgrey" stroke="none" points="0,-11.25 0,-33.75 199.5,-33.75 199.5,-11.25 0,-11.25"/>
<polygon fill="none" stroke="black" points="0,-11.25 0,-33.75 199.5,-33.75 199.5,-11.25 0,-11.25"/>
<text text-anchor="start" x="40.12" y="-17.45" font-family="Times,serif" font-size="14.00">User&#39;s matchable data</text>
</g>
<!-- User&#45;&gt;Profile -->
<g id="edge1" class="edge">
<title>User&#45;&gt;Profile</title>
<path fill="none" stroke="black" stroke-dasharray="5,2" d="M111.98,-266.51C110.19,-242.48 108.21,-215.81 106.36,-191.07"/>
<text text-anchor="middle" x="121.66" y="-223.7" font-family="Times,serif" font-size="14.00"> 1..1</text>
</g>
<!-- EventParticipation -->
<g id="node4" class="node">
<title>EventParticipation</title>
<polygon fill="lightyellow" stroke="none" points="218,-180 218,-202.5 417.5,-202.5 417.5,-180 218,-180"/>
<polygon fill="none" stroke="black" points="218,-180 218,-202.5 417.5,-202.5 417.5,-180 218,-180"/>
<text text-anchor="start" x="267.5" y="-186.2" font-family="Times,serif" font-size="14.00">EventParticipation</text>
<polygon fill="none" stroke="black" points="218,-157.5 218,-180 350.75,-180 350.75,-157.5 218,-157.5"/>
<text text-anchor="start" x="221" y="-163.7" font-family="Times,serif" font-size="14.00">user_id</text>
<polygon fill="none" stroke="black" points="350.75,-157.5 350.75,-180 417.5,-180 417.5,-157.5 350.75,-157.5"/>
<text text-anchor="start" x="353.75" y="-163.7" font-family="Times,serif" font-size="14.00">string (FK)</text>
<polygon fill="none" stroke="black" points="218,-135 218,-157.5 350.75,-157.5 350.75,-135 218,-135"/>
<text text-anchor="start" x="221" y="-141.2" font-family="Times,serif" font-size="14.00">event_id</text>
<polygon fill="none" stroke="black" points="350.75,-135 350.75,-157.5 417.5,-157.5 417.5,-135 350.75,-135"/>
<text text-anchor="start" x="353.75" y="-141.2" font-family="Times,serif" font-size="14.00">string (FK)</text>
<polygon fill="none" stroke="black" points="218,-112.5 218,-135 350.75,-135 350.75,-112.5 218,-112.5"/>
<text text-anchor="start" x="221" y="-118.7" font-family="Times,serif" font-size="14.00">goals</text>
<polygon fill="none" stroke="black" points="350.75,-112.5 350.75,-135 417.5,-135 417.5,-112.5 350.75,-112.5"/>
<text text-anchor="start" x="353.75" y="-118.7" font-family="Times,serif" font-size="14.00">jsonb</text>
<polygon fill="none" stroke="black" points="218,-90 218,-112.5 350.75,-112.5 350.75,-90 218,-90"/>
<text text-anchor="start" x="221" y="-96.2" font-family="Times,serif" font-size="14.00">context</text>
<polygon fill="none" stroke="black" points="350.75,-90 350.75,-112.5 417.5,-112.5 417.5,-90 350.75,-90"/>
<text text-anchor="start" x="353.75" y="-96.2" font-family="Times,serif" font-size="14.00">text</text>
<polygon fill="none" stroke="black" points="218,-67.5 218,-90 350.75,-90 350.75,-67.5 218,-67.5"/>
<text text-anchor="start" x="221" y="-73.7" font-family="Times,serif" font-size="14.00">joined_at</text>
<polygon fill="none" stroke="black" points="350.75,-67.5 350.75,-90 417.5,-90 417.5,-67.5 350.75,-67.5"/>
<text text-anchor="start" x="353.75" y="-73.7" font-family="Times,serif" font-size="14.00">timestamp</text>
<polygon fill="none" stroke="black" points="218,-45 218,-67.5 350.75,-67.5 350.75,-45 218,-45"/>
<text text-anchor="start" x="221" y="-51.2" font-family="Times,serif" font-size="14.00">updated_at</text>
<polygon fill="none" stroke="black" points="350.75,-45 350.75,-67.5 417.5,-67.5 417.5,-45 350.75,-45"/>
<text text-anchor="start" x="353.75" y="-51.2" font-family="Times,serif" font-size="14.00">timestamp</text>
<polygon fill="none" stroke="black" points="218,-22.5 218,-45 350.75,-45 350.75,-22.5 218,-22.5"/>
<text text-anchor="start" x="221" y="-28.7" font-family="Times,serif" font-size="14.00">embedding_updated_at</text>
<polygon fill="none" stroke="black" points="350.75,-22.5 350.75,-45 417.5,-45 417.5,-22.5 350.75,-22.5"/>
<text text-anchor="start" x="353.75" y="-28.7" font-family="Times,serif" font-size="14.00">timestamp</text>
<polygon fill="lightgrey" stroke="none" points="218,0 218,-22.5 417.5,-22.5 417.5,0 218,0"/>
<polygon fill="none" stroke="black" points="218,0 218,-22.5 417.5,-22.5 417.5,0 218,0"/>
<text text-anchor="start" x="263" y="-6.2" font-family="Times,serif" font-size="14.00">Links User to Event</text>
</g>
<!-- User&#45;&gt;EventParticipation -->
<g id="edge2" class="edge">
<title>User&#45;&gt;EventParticipation</title>
<path fill="none" stroke="black" d="M181.86,-266.51C196.45,-248.87 212.23,-229.8 227.68,-211.12"/>
<polygon fill="black" stroke="black" points="230.35,-213.38 234.03,-203.44 224.96,-208.92 230.35,-213.38"/>
<text text-anchor="middle" x="231.62" y="-223.7" font-family="Times,serif" font-size="14.00"> 1..N</text>
</g>
<!-- Event -->
<g id="node3" class="node">
<title>Event</title>
<polygon fill="lightgreen" stroke="none" points="240.88,-412.5 240.88,-435 394.62,-435 394.62,-412.5 240.88,-412.5"/>
<polygon fill="none" stroke="black" points="240.88,-412.5 240.88,-435 394.62,-435 394.62,-412.5 240.88,-412.5"/>
<text text-anchor="start" x="302" y="-418.7" font-family="Times,serif" font-size="14.00">Event</text>
<polygon fill="none" stroke="black" points="240.88,-390 240.88,-412.5 317.38,-412.5 317.38,-390 240.88,-390"/>
<text text-anchor="start" x="243.88" y="-396.2" font-family="Times,serif" font-size="14.00">id</text>
<polygon fill="none" stroke="black" points="317.38,-390 317.38,-412.5 394.62,-412.5 394.62,-390 317.38,-390"/>
<text text-anchor="start" x="320.38" y="-396.2" font-family="Times,serif" font-size="14.00">string (PK)</text>
<polygon fill="none" stroke="black" points="240.88,-367.5 240.88,-390 317.38,-390 317.38,-367.5 240.88,-367.5"/>
<text text-anchor="start" x="243.88" y="-373.7" font-family="Times,serif" font-size="14.00">name</text>
<polygon fill="none" stroke="black" points="317.38,-367.5 317.38,-390 394.62,-390 394.62,-367.5 317.38,-367.5"/>
<text text-anchor="start" x="320.38" y="-373.7" font-family="Times,serif" font-size="14.00">string</text>
<polygon fill="none" stroke="black" points="240.88,-345 240.88,-367.5 317.38,-367.5 317.38,-345 240.88,-345"/>
<text text-anchor="start" x="243.88" y="-351.2" font-family="Times,serif" font-size="14.00">description</text>
<polygon fill="none" stroke="black" points="317.38,-345 317.38,-367.5 394.62,-367.5 394.62,-345 317.38,-345"/>
<text text-anchor="start" x="320.38" y="-351.2" font-family="Times,serif" font-size="14.00">string</text>
<polygon fill="none" stroke="black" points="240.88,-322.5 240.88,-345 317.38,-345 317.38,-322.5 240.88,-322.5"/>
<text text-anchor="start" x="243.88" y="-328.7" font-family="Times,serif" font-size="14.00">start_date</text>
<polygon fill="none" stroke="black" points="317.38,-322.5 317.38,-345 394.62,-345 394.62,-322.5 317.38,-322.5"/>
<text text-anchor="start" x="320.38" y="-328.7" font-family="Times,serif" font-size="14.00">timestamp</text>
<polygon fill="none" stroke="black" points="240.88,-300 240.88,-322.5 317.38,-322.5 317.38,-300 240.88,-300"/>
<text text-anchor="start" x="243.88" y="-306.2" font-family="Times,serif" font-size="14.00">end_date</text>
<polygon fill="none" stroke="black" points="317.38,-300 317.38,-322.5 394.62,-322.5 394.62,-300 317.38,-300"/>
<text text-anchor="start" x="320.38" y="-306.2" font-family="Times,serif" font-size="14.00">timestamp</text>
<polygon fill="none" stroke="black" points="240.88,-277.5 240.88,-300 317.38,-300 317.38,-277.5 240.88,-277.5"/>
<text text-anchor="start" x="243.88" y="-283.7" font-family="Times,serif" font-size="14.00">created_at</text>
<polygon fill="none" stroke="black" points="317.38,-277.5 317.38,-300 394.62,-300 394.62,-277.5 317.38,-277.5"/>
<text text-anchor="start" x="320.38" y="-283.7" font-family="Times,serif" font-size="14.00">timestamp</text>
<polygon fill="lightgrey" stroke="none" points="240.88,-255 240.88,-277.5 394.62,-277.5 394.62,-255 240.88,-255"/>
<polygon fill="none" stroke="black" points="240.88,-255 240.88,-277.5 394.62,-277.5 394.62,-255 240.88,-255"/>
<text text-anchor="start" x="243.88" y="-261.2" font-family="Times,serif" font-size="14.00">Represents a specific event</text>
</g>
<!-- Event&#45;&gt;EventParticipation -->
<g id="edge3" class="edge">
<title>Event&#45;&gt;EventParticipation</title>
<path fill="none" stroke="black" d="M317.75,-255.01C317.75,-241.65 317.75,-227.74 317.75,-213.98"/>
<polygon fill="black" stroke="black" points="321.25,-213.99 317.75,-203.99 314.25,-213.99 321.25,-213.99"/>
<text text-anchor="middle" x="331.62" y="-223.7" font-family="Times,serif" font-size="14.00"> 1..N</text>
</g>
</g>
</svg>
