<?xml version="1.0" encoding="UTF-8" standalone="no"?>
<!DOCTYPE svg PUBLIC "-//W3C//DTD SVG 1.1//EN"
 "http://www.w3.org/Graphics/SVG/1.1/DTD/svg11.dtd">
<!-- Generated by graphviz version 12.2.1 (20241206.2353)
 -->
<!-- Title: SystemComponents Pages: 1 -->
<svg width="979pt" height="302pt"
 viewBox="0.00 0.00 979.08 302.35" xmlns="http://www.w3.org/2000/svg" xmlns:xlink="http://www.w3.org/1999/xlink">
<g id="graph0" class="graph" transform="scale(1 1) rotate(0) translate(4 298.35)">
<title>SystemComponents</title>
<polygon fill="white" stroke="none" points="-4,4 -4,-298.35 975.08,-298.35 975.08,4 -4,4"/>
<g id="clust1" class="cluster">
<title>cluster_Backend</title>
<polygon fill="#eeeeee" stroke="black" points="255.69,-49.35 255.69,-234.35 622.49,-234.35 622.49,-49.35 255.69,-49.35"/>
<text text-anchor="middle" x="439.09" y="-217.05" font-family="Times,serif" font-size="14.00">Backend System (AWS App Runner)</text>
</g>
<!-- ClientInterface -->
<g id="node1" class="node">
<title>ClientInterface</title>
<ellipse fill="#d0e0f0" stroke="black" cx="101.47" cy="-129.35" rx="101.47" ry="28.99"/>
<text text-anchor="middle" x="101.47" y="-132.55" font-family="Times,serif" font-size="14.00">Client Interface</text>
<text text-anchor="middle" x="101.47" y="-116.05" font-family="Times,serif" font-size="14.00">(Web, Mobile, Bot, ...)</text>
</g>
<!-- APIGateway -->
<g id="node2" class="node">
<title>APIGateway</title>
<polygon fill="#ffffff" stroke="black" points="404.74,-129.35 369.48,-147.35 298.95,-147.35 263.69,-129.35 298.95,-111.35 369.48,-111.35 404.74,-129.35"/>
<text text-anchor="middle" x="334.21" y="-124.3" font-family="Times,serif" font-size="14.00">API Gateway</text>
</g>
<!-- ClientInterface&#45;&gt;APIGateway -->
<g id="edge1" class="edge">
<title>ClientInterface&#45;&gt;APIGateway</title>
<path fill="none" stroke="black" d="M203.34,-129.35C219.44,-129.35 235.93,-129.35 251.51,-129.35"/>
<polygon fill="black" stroke="black" points="251.17,-132.85 261.17,-129.35 251.17,-125.85 251.17,-132.85"/>
<text text-anchor="middle" x="233.31" y="-132.55" font-family="Times,serif" font-size="14.00"> API</text>
</g>
<!-- ProfileService -->
<g id="node3" class="node">
<title>ProfileService</title>
<polygon fill="#ffffff" stroke="black" points="614.49,-201.35 441.74,-201.35 441.74,-197.35 437.74,-197.35 437.74,-193.35 441.74,-193.35 441.74,-173.35 437.74,-173.35 437.74,-169.35 441.74,-169.35 441.74,-165.35 614.49,-165.35 614.49,-201.35"/>
<polyline fill="none" stroke="black" points="441.74,-197.35 445.74,-197.35 445.74,-193.35 441.74,-193.35"/>
<polyline fill="none" stroke="black" points="441.74,-173.35 445.74,-173.35 445.74,-169.35 441.74,-169.35"/>
<text text-anchor="middle" x="528.11" y="-178.3" font-family="Times,serif" font-size="14.00">Profile Management Service</text>
</g>
<!-- APIGateway&#45;&gt;ProfileService -->
<g id="edge2" class="edge">
<title>APIGateway&#45;&gt;ProfileService</title>
<path fill="none" stroke="black" d="M380.69,-142.14C401.64,-148.04 427.09,-155.2 450.85,-161.89"/>
<polygon fill="black" stroke="black" points="449.59,-165.17 460.16,-164.51 451.49,-158.43 449.59,-165.17"/>
</g>
<!-- EventService -->
<g id="node4" class="node">
<title>EventService</title>
<polygon fill="#ffffff" stroke="black" points="611.86,-93.35 444.36,-93.35 444.36,-89.35 440.36,-89.35 440.36,-85.35 444.36,-85.35 444.36,-65.35 440.36,-65.35 440.36,-61.35 444.36,-61.35 444.36,-57.35 611.86,-57.35 611.86,-93.35"/>
<polyline fill="none" stroke="black" points="444.36,-89.35 448.36,-89.35 448.36,-85.35 444.36,-85.35"/>
<polyline fill="none" stroke="black" points="444.36,-65.35 448.36,-65.35 448.36,-61.35 444.36,-61.35"/>
<text text-anchor="middle" x="528.11" y="-70.3" font-family="Times,serif" font-size="14.00">Event Management Service</text>
</g>
<!-- APIGateway&#45;&gt;EventService -->
<g id="edge3" class="edge">
<title>APIGateway&#45;&gt;EventService</title>
<path fill="none" stroke="black" d="M380.69,-116.55C401.64,-110.65 427.09,-103.49 450.85,-96.81"/>
<polygon fill="black" stroke="black" points="451.49,-100.26 460.16,-94.19 449.59,-93.53 451.49,-100.26"/>
</g>
<!-- MatchingEngine -->
<g id="node5" class="node">
<title>MatchingEngine</title>
<polygon fill="#ffffff" stroke="black" points="605.49,-147.35 450.74,-147.35 450.74,-143.35 446.74,-143.35 446.74,-139.35 450.74,-139.35 450.74,-119.35 446.74,-119.35 446.74,-115.35 450.74,-115.35 450.74,-111.35 605.49,-111.35 605.49,-147.35"/>
<polyline fill="none" stroke="black" points="450.74,-143.35 454.74,-143.35 454.74,-139.35 450.74,-139.35"/>
<polyline fill="none" stroke="black" points="450.74,-119.35 454.74,-119.35 454.74,-115.35 450.74,-115.35"/>
<text text-anchor="middle" x="528.11" y="-124.3" font-family="Times,serif" font-size="14.00">Matching Engine Service</text>
</g>
<!-- APIGateway&#45;&gt;MatchingEngine -->
<g id="edge4" class="edge">
<title>APIGateway&#45;&gt;MatchingEngine</title>
<path fill="none" stroke="black" d="M405.58,-129.35C416.49,-129.35 427.88,-129.35 439.12,-129.35"/>
<polygon fill="black" stroke="black" points="438.77,-132.85 448.77,-129.35 438.77,-125.85 438.77,-132.85"/>
</g>
<!-- LLMService -->
<g id="node6" class="node">
<title>LLMService</title>
<ellipse fill="#f0e8d0" stroke="black" cx="859.53" cy="-201.35" rx="111.55" ry="28.99"/>
<text text-anchor="middle" x="859.53" y="-204.55" font-family="Times,serif" font-size="14.00">LLM Service</text>
<text text-anchor="middle" x="859.53" y="-188.05" font-family="Times,serif" font-size="14.00">(e.g., OpenAI, Anthropic)</text>
</g>
<!-- ProfileService&#45;&gt;LLMService -->
<g id="edge5" class="edge">
<title>ProfileService&#45;&gt;LLMService</title>
<path fill="none" stroke="black" d="M579.98,-201.81C596.5,-206.93 615.06,-211.79 632.49,-214.35 670.55,-219.93 712.55,-219.35 749.92,-216.49"/>
<polygon fill="black" stroke="black" points="750.17,-219.98 759.85,-215.66 749.59,-213.01 750.17,-219.98"/>
<text text-anchor="middle" x="681.24" y="-221.8" font-family="Times,serif" font-size="14.00"> Parse Data</text>
</g>
<!-- RDSDatabase -->
<g id="node7" class="node">
<title>RDSDatabase</title>
<path fill="#d0f0d0" stroke="black" d="M933.16,-139.41C933.16,-142.24 900.16,-144.53 859.53,-144.53 818.91,-144.53 785.91,-142.24 785.91,-139.41 785.91,-139.41 785.91,-93.28 785.91,-93.28 785.91,-90.46 818.91,-88.16 859.53,-88.16 900.16,-88.16 933.16,-90.46 933.16,-93.28 933.16,-93.28 933.16,-139.41 933.16,-139.41"/>
<path fill="none" stroke="black" d="M933.16,-139.41C933.16,-136.58 900.16,-134.28 859.53,-134.28 818.91,-134.28 785.91,-136.58 785.91,-139.41"/>
<text text-anchor="middle" x="859.53" y="-119.55" font-family="Times,serif" font-size="14.00">RDS Database</text>
<text text-anchor="middle" x="859.53" y="-103.05" font-family="Times,serif" font-size="14.00">(PostgreSQL + JSONB)</text>
</g>
<!-- ProfileService&#45;&gt;RDSDatabase -->
<g id="edge6" class="edge">
<title>ProfileService&#45;&gt;RDSDatabase</title>
<path fill="none" stroke="black" d="M614.76,-188.86C651.01,-188.81 693.27,-185.57 729.99,-174.35 738.95,-171.61 739.65,-167.64 747.99,-163.35 758.56,-157.9 769.92,-152.55 781.17,-147.52"/>
<polygon fill="black" stroke="black" points="782.33,-150.84 790.07,-143.61 779.51,-144.43 782.33,-150.84"/>
<text text-anchor="middle" x="681.24" y="-191.76" font-family="Times,serif" font-size="14.00"> R/W Profile</text>
</g>
<!-- S3Bucket -->
<g id="node9" class="node">
<title>S3Bucket</title>
<path fill="#f0f0d0" stroke="black" d="M895.66,-291.07C895.66,-292.88 879.47,-294.35 859.53,-294.35 839.6,-294.35 823.41,-292.88 823.41,-291.07 823.41,-291.07 823.41,-261.62 823.41,-261.62 823.41,-259.81 839.6,-258.35 859.53,-258.35 879.47,-258.35 895.66,-259.81 895.66,-261.62 895.66,-261.62 895.66,-291.07 895.66,-291.07"/>
<path fill="none" stroke="black" d="M895.66,-291.07C895.66,-289.27 879.47,-287.8 859.53,-287.8 839.6,-287.8 823.41,-289.27 823.41,-291.07"/>
<text text-anchor="middle" x="859.53" y="-271.3" font-family="Times,serif" font-size="14.00">S3 Bucket</text>
</g>
<!-- ProfileService&#45;&gt;S3Bucket -->
<g id="edge7" class="edge">
<title>ProfileService&#45;&gt;S3Bucket</title>
<path fill="none" stroke="black" d="M556.9,-201.73C577.07,-214.22 605.45,-230.1 632.49,-239.35 692.5,-259.86 765.47,-269.17 811.96,-273.28"/>
<polygon fill="black" stroke="black" points="811.42,-276.75 821.68,-274.09 812,-269.77 811.42,-276.75"/>
<text text-anchor="middle" x="681.24" y="-266.1" font-family="Times,serif" font-size="14.00"> Store Audio</text>
</g>
<!-- EventService&#45;&gt;RDSDatabase -->
<g id="edge8" class="edge">
<title>EventService&#45;&gt;RDSDatabase</title>
<path fill="none" stroke="black" d="M567.66,-56.86C608.69,-39.76 675.13,-19.56 729.99,-37.85 739.47,-41.01 739.66,-45.8 747.99,-51.35 764.18,-62.13 782.19,-73.12 798.89,-82.92"/>
<polygon fill="black" stroke="black" points="796.84,-85.78 807.25,-87.79 800.37,-79.73 796.84,-85.78"/>
<text text-anchor="middle" x="681.24" y="-41.05" font-family="Times,serif" font-size="14.00"> R/W Event</text>
</g>
<!-- QdrantCloud -->
<g id="node8" class="node">
<title>QdrantCloud</title>
<path fill="#f0d0f0" stroke="black" d="M904.66,-39.07C904.66,-40.88 884.43,-42.35 859.53,-42.35 834.63,-42.35 814.41,-40.88 814.41,-39.07 814.41,-39.07 814.41,-9.62 814.41,-9.62 814.41,-7.81 834.63,-6.35 859.53,-6.35 884.43,-6.35 904.66,-7.81 904.66,-9.62 904.66,-9.62 904.66,-39.07 904.66,-39.07"/>
<path fill="none" stroke="black" d="M904.66,-39.07C904.66,-37.27 884.43,-35.8 859.53,-35.8 834.63,-35.8 814.41,-37.27 814.41,-39.07"/>
<text text-anchor="middle" x="859.53" y="-19.3" font-family="Times,serif" font-size="14.00">Qdrant Cloud</text>
</g>
<!-- EventService&#45;&gt;QdrantCloud -->
<g id="edge9" class="edge">
<title>EventService&#45;&gt;QdrantCloud</title>
<path fill="none" stroke="black" d="M549.92,-57.09C569.64,-41.1 600.86,-19.02 632.49,-9.85 689.01,6.55 756.7,-1.18 803.18,-10.43"/>
<polygon fill="black" stroke="black" points="802.25,-13.81 812.75,-12.43 803.68,-6.96 802.25,-13.81"/>
<text text-anchor="middle" x="681.24" y="-13.05" font-family="Times,serif" font-size="14.00"> Store Goals Emb</text>
</g>
<!-- MatchingEngine&#45;&gt;LLMService -->
<g id="edge12" class="edge">
<title>MatchingEngine&#45;&gt;LLMService</title>
<path fill="none" stroke="black" d="M605.69,-134.48C643.48,-138.07 689.53,-144.05 729.99,-153.85 749.6,-158.6 770.33,-165.42 789.28,-172.41"/>
<polygon fill="black" stroke="black" points="787.9,-175.63 798.49,-175.88 790.37,-169.08 787.9,-175.63"/>
<text text-anchor="middle" x="681.24" y="-157.05" font-family="Times,serif" font-size="14.00"> Explain Match</text>
</g>
<!-- MatchingEngine&#45;&gt;RDSDatabase -->
<g id="edge11" class="edge">
<title>MatchingEngine&#45;&gt;RDSDatabase</title>
<path fill="none" stroke="black" d="M605.81,-119.92C614.79,-119.08 623.84,-118.36 632.49,-117.85 679.23,-115.1 731.5,-114.59 774,-114.82"/>
<polygon fill="black" stroke="black" points="773.89,-118.32 783.92,-114.9 773.94,-111.32 773.89,-118.32"/>
<text text-anchor="middle" x="681.24" y="-121.05" font-family="Times,serif" font-size="14.00"> Fetch Cands</text>
</g>
<!-- MatchingEngine&#45;&gt;QdrantCloud -->
<g id="edge10" class="edge">
<title>MatchingEngine&#45;&gt;QdrantCloud</title>
<path fill="none" stroke="black" d="M602.48,-110.92C609.37,-108.36 616.15,-105.51 622.49,-102.35 627.46,-99.87 627.54,-97.38 632.49,-94.85 687.6,-66.65 756.09,-47.23 803.15,-36.02"/>
<polygon fill="black" stroke="black" points="803.91,-39.44 812.86,-33.76 802.32,-32.62 803.91,-39.44"/>
<text text-anchor="middle" x="681.24" y="-98.05" font-family="Times,serif" font-size="14.00"> Find Cands</text>
</g>
</g>
</svg>
